{"title":"Chantal Akerman - 2011 - La folie Almayer AKA Almayer's Folly","uid":8665887,"size":2457319075,"categoryP":"video","categoryS":"movies","magnet":"?xt=urn:btih:1a27c1c34d20218274bddb7eac6a0ea037ab9b0e&amp;dn=Chantal+Akerman+-+2011+-+La+folie+Almayer+AKA+Almayer%27s+Folly&amp;tr=udp%3A%2F%2Ftracker.openbittorrent.com%3A80&amp;tr=udp%3A%2F%2Fopen.demonii.com%3A1337&amp;tr=udp%3A%2F%2Ftracker.coppersurfer.tk%3A6969&amp;tr=udp%3A%2F%2Fexodus.desync.com%3A6969","seeders":6,"leechers":0,"uploader":"rpessoa","files":1,"time":1373404679,"description":"A tale of an occidental merchant, Kaspar Almayer, whose dreams of riches for his beloved daughter, Nina, collapse under the weight of his own greed and prejudice.\n &lt;a href=&quot;\nhttp://www.imdb.com/title/tt1532530/&quot; rel=&quot;nofollow&quot; target=&quot;_NEW&quot;&gt;\nhttp://www.imdb.com/title/tt1532530/&lt;/a&gt;\n\nGeneral \nUnique ID : 229530649240263045409269606844009903982\nComplete name : La.Folie.Almayer.2011.DVDRip.x264.mkv \nFormat : Matroska \nFormat version : Version 2 \nFile size : 2.29 GiB \nDuration : 2h 2mn \nOverall bit rate : 2 684 Kbps \nEncoded date : UTC 2013-07-07 02:19:51 \nWriting application : mkvmerge v5.8.0 ('No Sleep / Pillow') built on Sep 2 2012 15:37:04 \nWriting library : libebml v1.2.3 + libmatroska v1.3.0 \n\nVideo \nID : 1 \nFormat : AVC \nFormat/Info : Advanced Video Codec \nFormat profile : &lt;a class=&quot;__cf_email__&quot; href=&quot;/cdn-cgi/l/email-protection&quot; data-cfemail=&quot;2b63424c436b6718051a&quot;&gt;[email&amp;#160;protected]&lt;/a&gt;&lt;script cf-hash='f9e31' type=&quot;text/javascript&quot;&gt;\n/* &lt;![CDATA[ */!function(){try{var t=&quot;currentScript&quot;in document?document.currentScript:function(){for(var t=document.getElementsByTagName(&quot;script&quot;),e=t.length;e--;)if(t[e].getAttribute(&quot;cf-hash&quot;))return t[e]}();if(t&amp;&amp;t.previousSibling){var e,r,n,i,c=t.previousSibling,a=c.getAttribute(&quot;data-cfemail&quot;);if(a){for(e=&quot;&quot;,r=parseInt(a.substr(0,2),16),n=2;a.length-n;n+=2)i=parseInt(a.substr(n,2),16)^r,e+=String.fromCharCode(i);e=document.createTextNode(e),c.parentNode.replaceChild(e,c)}}}catch(u){}}();/* ]]&gt; */&lt;/script&gt; \nFormat settings, CABAC : Yes \nFormat settings, ReFrames : 11 frames \nCodec ID : V_MPEG4/ISO/AVC \nDuration : 2h 2mn \nBit rate : 2 247 Kbps \nWidth : 720 pixels \nHeight : 552 pixels \nDisplay aspect ratio : 1.85:1 \nFrame rate mode : Constant \nFrame rate : 25.000 fps \nColor space : YUV \nChroma subsampling : 4:2:0 \nBit depth : 8 bits \nScan type : Progressive \nBits/(Pixel*Frame) : 0.226 \nStream size : 1.92 GiB (84%) \nWriting library : x264 core 133 r2334 a3ac64b \nEncoding settings : cabac=1 / ref=11 / deblock=1:-3:-3 / analyse=0x3:0x133 / me=umh / subme=11 / psy=1 / psy_rd=1.05:0.00 / mixed_ref=1 / me_range=32 / chroma_me=1 / trellis=2 / 8x8dct=1 / cqm=0 / deadzone=21,11 / fast_pskip=0 / chroma_qp_offset=-2 / threads=12 / lookahead_threads=3 / sliced_threads=0 / nr=0 / decimate=1 / interlaced=0 / bluray_compat=0 / constrained_intra=0 / bframes=16 / b_pyramid=2 / b_adapt=2 / b_bias=0 / direct=3 / weightb=1 / open_gop=0 / weightp=2 / keyint=250 / keyint_min=25 / scenecut=40 / intra_refresh=0 / rc_lookahead=60 / rc=crf / mbtree=1 / crf=17.0 / qcomp=0.62 / qpmin=0 / qpmax=69 / qpstep=4 / ip_ratio=1.40 / aq=2:1.06 \nLanguage : English \nDefault : Yes \nForced : No \n\nAudio \nID : 2 \nFormat : AC-3 \nFormat/Info : Audio Coding 3 \nMode extension : CM (complete main) \nFormat settings, Endianness : Big \nCodec ID : A_AC3 \nDuration : 2h 2mn \nBit rate mode : Constant \nBit rate : 384 Kbps \nChannel(s) : 2 channels \nChannel positions : Front: L R \nSampling rate : 48.0 KHz \nBit depth : 16 bits \nCompression mode : Lossy \nStream size : 335 MiB (14%) \nLanguage : French \nDefault : Yes \nForced : No \n\nText #1 \nID : 3 \nFormat : UTF-8 \nCodec ID : S_TEXT/UTF8 \nCodec ID/Info : UTF-8 Plain Text \nLanguage : English \nDefault : Yes \nForced : No \n\nText #2 \nID : 4 \nFormat : UTF-8 \nCodec ID : S_TEXT/UTF8 \nCodec ID/Info : UTF-8 Plain Text \nLanguage : Dutch \nDefault : No \nForced : No \n\nText #3 \nID : 5 \nFormat : UTF-8 \nCodec ID : S_TEXT/UTF8 \nCodec ID/Info : UTF-8 Plain Text \nLanguage : French \nDefault : No \nForced : No \n\nMenu \n00:00:00.000 : en:Chapter 1 \n00:09:49.560 : en:Chapter 2 \n00:20:08.200 : en:Chapter 3 \n00:33:23.760 : en:Chapter 4 \n00:40:38.840 : en:Chapter 5 \n00:50:26.440 : en:Chapter 6 \n01:02:08.920 : en:Chapter 7 \n01:10:40.000 : en:Chapter 8 \n01:21:24.840 : en:Chapter 9 \n01:31:33.480 : en:Chapter 10 \n01:39:24.880 : en:Chapter 11 \n01:51:58.560 : en:Chapter 12 \n02:01:53.800 : en:Chapter 13 \n\nMy rip.","torrent":{"xt":"urn:btih:1a27c1c34d20218274bddb7eac6a0ea037ab9b0e","amp;dn":"Chantal+Akerman+-+2011+-+La+folie+Almayer+AKA+Almayer%27s+Folly","amp;tr":["udp%3A%2F%2Ftracker.openbittorrent.com%3A80","udp%3A%2F%2Fopen.demonii.com%3A1337","udp%3A%2F%2Ftracker.coppersurfer.tk%3A6969","udp%3A%2F%2Fexodus.desync.com%3A6969"],"infoHash":"1a27c1c34d20218274bddb7eac6a0ea037ab9b0e","infoHashBuffer":{"type":"Buffer","data":[26,39,193,195,77,32,33,130,116,189,219,126,172,106,14,160,55,171,155,14]},"announce":[],"urlList":[]}}